<mxfile host="app.diagrams.net" modified="2023-07-13T10:25:06.140Z" agent="Mozilla/5.0 (Windows NT 10.0; Win64; x64) AppleWebKit/537.36 (KHTML, like Gecko) Chrome/114.0.0.0 Safari/537.36 Edg/114.0.1823.67" etag="N88c3wMyRvACJ8tRdj7U" version="21.6.2" type="github">
  <diagram name="第 1 页" id="ZgqW69BWw8Sf8r_1471l">
    <mxGraphModel dx="1192" dy="2041" grid="1" gridSize="10" guides="1" tooltips="1" connect="1" arrows="1" fold="1" page="1" pageScale="1" pageWidth="827" pageHeight="1169" math="0" shadow="0">
      <root>
        <mxCell id="0" />
        <mxCell id="1" parent="0" />
        <mxCell id="2xLEtlN80JLKNDzPZBQu-100" value="研发流程" style="swimlane;childLayout=stackLayout;resizeParent=1;resizeParentMax=0;horizontal=1;startSize=20;horizontalStack=0;html=1;" vertex="1" parent="1">
          <mxGeometry y="-700" width="890" height="1600" as="geometry">
            <mxRectangle y="-692" width="90" height="30" as="alternateBounds" />
          </mxGeometry>
        </mxCell>
        <mxCell id="2xLEtlN80JLKNDzPZBQu-101" value="设计阶段" style="swimlane;startSize=20;horizontal=0;html=1;" vertex="1" parent="2xLEtlN80JLKNDzPZBQu-100">
          <mxGeometry y="20" width="890" height="590" as="geometry">
            <mxRectangle y="20" width="890" height="30" as="alternateBounds" />
          </mxGeometry>
        </mxCell>
        <mxCell id="2xLEtlN80JLKNDzPZBQu-112" value="前端" style="swimlane;movable=1;resizable=1;rotatable=1;deletable=1;editable=1;locked=0;connectable=1;" vertex="1" parent="2xLEtlN80JLKNDzPZBQu-101">
          <mxGeometry x="20" width="290" height="590" as="geometry">
            <mxRectangle x="20" width="100" height="30" as="alternateBounds" />
          </mxGeometry>
        </mxCell>
        <mxCell id="2xLEtlN80JLKNDzPZBQu-115" value="后端" style="swimlane;" vertex="1" parent="2xLEtlN80JLKNDzPZBQu-101">
          <mxGeometry x="310" width="290" height="590" as="geometry" />
        </mxCell>
        <mxCell id="2xLEtlN80JLKNDzPZBQu-132" value="" style="edgeStyle=orthogonalEdgeStyle;rounded=0;orthogonalLoop=1;jettySize=auto;html=1;movable=1;resizable=1;rotatable=1;deletable=1;editable=1;locked=0;connectable=1;strokeWidth=2;" edge="1" parent="2xLEtlN80JLKNDzPZBQu-115" source="2xLEtlN80JLKNDzPZBQu-128" target="2xLEtlN80JLKNDzPZBQu-131">
          <mxGeometry relative="1" as="geometry" />
        </mxCell>
        <mxCell id="2xLEtlN80JLKNDzPZBQu-128" value="开始" style="strokeWidth=2;html=1;shape=mxgraph.flowchart.start_1;whiteSpace=wrap;movable=1;resizable=1;rotatable=1;deletable=1;editable=1;locked=0;connectable=1;" vertex="1" parent="2xLEtlN80JLKNDzPZBQu-115">
          <mxGeometry x="90" y="40" width="120" height="60" as="geometry" />
        </mxCell>
        <mxCell id="2xLEtlN80JLKNDzPZBQu-134" value="" style="edgeStyle=orthogonalEdgeStyle;rounded=0;orthogonalLoop=1;jettySize=auto;html=1;exitX=0.5;exitY=0.85;exitDx=0;exitDy=0;exitPerimeter=0;" edge="1" parent="2xLEtlN80JLKNDzPZBQu-115" source="2xLEtlN80JLKNDzPZBQu-131" target="2xLEtlN80JLKNDzPZBQu-133">
          <mxGeometry relative="1" as="geometry" />
        </mxCell>
        <mxCell id="2xLEtlN80JLKNDzPZBQu-131" value="需求文档" style="shape=document;whiteSpace=wrap;html=1;boundedLbl=1;strokeWidth=2;movable=1;resizable=1;rotatable=1;deletable=1;editable=1;locked=0;connectable=1;" vertex="1" parent="2xLEtlN80JLKNDzPZBQu-115">
          <mxGeometry x="90" y="140" width="120" height="80" as="geometry" />
        </mxCell>
        <mxCell id="2xLEtlN80JLKNDzPZBQu-138" value="" style="edgeStyle=orthogonalEdgeStyle;rounded=0;orthogonalLoop=1;jettySize=auto;html=1;strokeWidth=2;" edge="1" parent="2xLEtlN80JLKNDzPZBQu-115" source="2xLEtlN80JLKNDzPZBQu-133" target="2xLEtlN80JLKNDzPZBQu-137">
          <mxGeometry relative="1" as="geometry" />
        </mxCell>
        <mxCell id="2xLEtlN80JLKNDzPZBQu-200" value="" style="edgeStyle=orthogonalEdgeStyle;rounded=0;orthogonalLoop=1;jettySize=auto;html=1;strokeWidth=2;" edge="1" parent="2xLEtlN80JLKNDzPZBQu-115" source="2xLEtlN80JLKNDzPZBQu-133" target="2xLEtlN80JLKNDzPZBQu-131">
          <mxGeometry relative="1" as="geometry" />
        </mxCell>
        <mxCell id="2xLEtlN80JLKNDzPZBQu-133" value="数据库设计" style="rounded=1;whiteSpace=wrap;html=1;strokeWidth=2;" vertex="1" parent="2xLEtlN80JLKNDzPZBQu-115">
          <mxGeometry x="90" y="250" width="120" height="60" as="geometry" />
        </mxCell>
        <mxCell id="2xLEtlN80JLKNDzPZBQu-142" style="edgeStyle=orthogonalEdgeStyle;rounded=0;orthogonalLoop=1;jettySize=auto;html=1;exitX=0.5;exitY=1;exitDx=0;exitDy=0;entryX=0.5;entryY=0;entryDx=0;entryDy=0;entryPerimeter=0;align=center;strokeWidth=2;" edge="1" parent="2xLEtlN80JLKNDzPZBQu-115" source="2xLEtlN80JLKNDzPZBQu-137" target="2xLEtlN80JLKNDzPZBQu-141">
          <mxGeometry relative="1" as="geometry" />
        </mxCell>
        <mxCell id="2xLEtlN80JLKNDzPZBQu-143" value="是" style="edgeLabel;html=1;align=center;verticalAlign=middle;resizable=0;points=[];" vertex="1" connectable="0" parent="2xLEtlN80JLKNDzPZBQu-142">
          <mxGeometry x="-0.32" y="-3" relative="1" as="geometry">
            <mxPoint x="2" y="7" as="offset" />
          </mxGeometry>
        </mxCell>
        <mxCell id="2xLEtlN80JLKNDzPZBQu-229" style="edgeStyle=orthogonalEdgeStyle;rounded=0;orthogonalLoop=1;jettySize=auto;html=1;exitX=0;exitY=0.5;exitDx=0;exitDy=0;entryX=0;entryY=0.5;entryDx=0;entryDy=0;strokeWidth=2;" edge="1" parent="2xLEtlN80JLKNDzPZBQu-115" source="2xLEtlN80JLKNDzPZBQu-137" target="2xLEtlN80JLKNDzPZBQu-133">
          <mxGeometry relative="1" as="geometry">
            <Array as="points">
              <mxPoint x="50" y="380" />
              <mxPoint x="50" y="280" />
            </Array>
          </mxGeometry>
        </mxCell>
        <mxCell id="2xLEtlN80JLKNDzPZBQu-232" value="否" style="edgeLabel;html=1;align=center;verticalAlign=middle;resizable=0;points=[];" vertex="1" connectable="0" parent="2xLEtlN80JLKNDzPZBQu-229">
          <mxGeometry x="0.1678" relative="1" as="geometry">
            <mxPoint as="offset" />
          </mxGeometry>
        </mxCell>
        <mxCell id="2xLEtlN80JLKNDzPZBQu-137" value="评审通过" style="rhombus;whiteSpace=wrap;html=1;rounded=0;strokeWidth=2;" vertex="1" parent="2xLEtlN80JLKNDzPZBQu-115">
          <mxGeometry x="110" y="340" width="80" height="80" as="geometry" />
        </mxCell>
        <mxCell id="2xLEtlN80JLKNDzPZBQu-141" value="ER图、表结构" style="strokeWidth=2;html=1;shape=mxgraph.flowchart.multi-document;whiteSpace=wrap;" vertex="1" parent="2xLEtlN80JLKNDzPZBQu-115">
          <mxGeometry x="90" y="480" width="120" height="60" as="geometry" />
        </mxCell>
        <mxCell id="2xLEtlN80JLKNDzPZBQu-116" value="测试" style="swimlane;" vertex="1" parent="2xLEtlN80JLKNDzPZBQu-101">
          <mxGeometry x="600" width="290" height="590" as="geometry">
            <mxRectangle x="600" width="60" height="30" as="alternateBounds" />
          </mxGeometry>
        </mxCell>
        <mxCell id="2xLEtlN80JLKNDzPZBQu-184" value="" style="edgeStyle=orthogonalEdgeStyle;rounded=0;orthogonalLoop=1;jettySize=auto;html=1;strokeWidth=2;" edge="1" parent="2xLEtlN80JLKNDzPZBQu-116" source="2xLEtlN80JLKNDzPZBQu-180" target="2xLEtlN80JLKNDzPZBQu-183">
          <mxGeometry relative="1" as="geometry" />
        </mxCell>
        <mxCell id="2xLEtlN80JLKNDzPZBQu-180" value="测试用例编写" style="rounded=1;whiteSpace=wrap;html=1;strokeWidth=2;" vertex="1" parent="2xLEtlN80JLKNDzPZBQu-116">
          <mxGeometry x="85" y="150" width="120" height="60" as="geometry" />
        </mxCell>
        <mxCell id="2xLEtlN80JLKNDzPZBQu-190" style="edgeStyle=orthogonalEdgeStyle;rounded=0;orthogonalLoop=1;jettySize=auto;html=1;exitX=0.5;exitY=1;exitDx=0;exitDy=0;entryX=0.5;entryY=0;entryDx=0;entryDy=0;entryPerimeter=0;strokeWidth=2;" edge="1" parent="2xLEtlN80JLKNDzPZBQu-116" source="2xLEtlN80JLKNDzPZBQu-183" target="2xLEtlN80JLKNDzPZBQu-189">
          <mxGeometry relative="1" as="geometry" />
        </mxCell>
        <mxCell id="2xLEtlN80JLKNDzPZBQu-191" value="是" style="edgeLabel;html=1;align=center;verticalAlign=middle;resizable=0;points=[];" vertex="1" connectable="0" parent="2xLEtlN80JLKNDzPZBQu-190">
          <mxGeometry x="-0.2" y="-2" relative="1" as="geometry">
            <mxPoint as="offset" />
          </mxGeometry>
        </mxCell>
        <mxCell id="2xLEtlN80JLKNDzPZBQu-227" style="edgeStyle=orthogonalEdgeStyle;rounded=0;orthogonalLoop=1;jettySize=auto;html=1;exitX=1;exitY=0.5;exitDx=0;exitDy=0;entryX=1;entryY=0.5;entryDx=0;entryDy=0;strokeWidth=2;" edge="1" parent="2xLEtlN80JLKNDzPZBQu-116" source="2xLEtlN80JLKNDzPZBQu-183" target="2xLEtlN80JLKNDzPZBQu-180">
          <mxGeometry relative="1" as="geometry">
            <Array as="points">
              <mxPoint x="240" y="320" />
              <mxPoint x="240" y="180" />
            </Array>
          </mxGeometry>
        </mxCell>
        <mxCell id="2xLEtlN80JLKNDzPZBQu-228" value="否" style="edgeLabel;html=1;align=center;verticalAlign=middle;resizable=0;points=[];" vertex="1" connectable="0" parent="2xLEtlN80JLKNDzPZBQu-227">
          <mxGeometry x="0.0577" relative="1" as="geometry">
            <mxPoint x="-1" as="offset" />
          </mxGeometry>
        </mxCell>
        <mxCell id="2xLEtlN80JLKNDzPZBQu-183" value="评审通过" style="rhombus;whiteSpace=wrap;html=1;rounded=0;strokeWidth=2;" vertex="1" parent="2xLEtlN80JLKNDzPZBQu-116">
          <mxGeometry x="105" y="280" width="80" height="80" as="geometry" />
        </mxCell>
        <mxCell id="2xLEtlN80JLKNDzPZBQu-189" value="测试用例" style="strokeWidth=2;html=1;shape=mxgraph.flowchart.document2;whiteSpace=wrap;size=0.25;" vertex="1" parent="2xLEtlN80JLKNDzPZBQu-116">
          <mxGeometry x="95" y="410" width="100" height="60" as="geometry" />
        </mxCell>
        <mxCell id="2xLEtlN80JLKNDzPZBQu-179" style="edgeStyle=orthogonalEdgeStyle;rounded=0;orthogonalLoop=1;jettySize=auto;html=1;exitX=1;exitY=0.5;exitDx=0;exitDy=0;entryX=0;entryY=0.5;entryDx=0;entryDy=0;strokeWidth=2;" edge="1" parent="2xLEtlN80JLKNDzPZBQu-101" source="2xLEtlN80JLKNDzPZBQu-131" target="2xLEtlN80JLKNDzPZBQu-180">
          <mxGeometry relative="1" as="geometry">
            <mxPoint x="720" y="180" as="targetPoint" />
          </mxGeometry>
        </mxCell>
        <mxCell id="2xLEtlN80JLKNDzPZBQu-102" value="开发阶段" style="swimlane;startSize=20;horizontal=0;html=1;" vertex="1" parent="2xLEtlN80JLKNDzPZBQu-100">
          <mxGeometry y="610" width="890" height="810" as="geometry">
            <mxRectangle y="610" width="890" height="30" as="alternateBounds" />
          </mxGeometry>
        </mxCell>
        <mxCell id="2xLEtlN80JLKNDzPZBQu-113" value="" style="swimlane;startSize=0;" vertex="1" parent="2xLEtlN80JLKNDzPZBQu-102">
          <mxGeometry x="20" width="290" height="810" as="geometry" />
        </mxCell>
        <mxCell id="2xLEtlN80JLKNDzPZBQu-199" value="" style="edgeStyle=orthogonalEdgeStyle;rounded=0;orthogonalLoop=1;jettySize=auto;html=1;strokeWidth=2;" edge="1" parent="2xLEtlN80JLKNDzPZBQu-113" source="2xLEtlN80JLKNDzPZBQu-195" target="2xLEtlN80JLKNDzPZBQu-198">
          <mxGeometry relative="1" as="geometry" />
        </mxCell>
        <mxCell id="2xLEtlN80JLKNDzPZBQu-195" value="生成代码" style="rounded=1;whiteSpace=wrap;html=1;strokeWidth=2;" vertex="1" parent="2xLEtlN80JLKNDzPZBQu-113">
          <mxGeometry x="60" y="40" width="120" height="60" as="geometry" />
        </mxCell>
        <mxCell id="2xLEtlN80JLKNDzPZBQu-198" value="字段约束条件&lt;br&gt;交互逻辑" style="rounded=1;whiteSpace=wrap;html=1;strokeWidth=2;" vertex="1" parent="2xLEtlN80JLKNDzPZBQu-113">
          <mxGeometry x="60" y="160" width="120" height="60" as="geometry" />
        </mxCell>
        <mxCell id="2xLEtlN80JLKNDzPZBQu-119" value="" style="swimlane;startSize=0;" vertex="1" parent="2xLEtlN80JLKNDzPZBQu-102">
          <mxGeometry x="310" width="290" height="810" as="geometry" />
        </mxCell>
        <mxCell id="2xLEtlN80JLKNDzPZBQu-213" style="edgeStyle=orthogonalEdgeStyle;rounded=0;orthogonalLoop=1;jettySize=auto;html=1;exitX=0.5;exitY=1;exitDx=0;exitDy=0;strokeWidth=2;" edge="1" parent="2xLEtlN80JLKNDzPZBQu-119" source="2xLEtlN80JLKNDzPZBQu-206" target="2xLEtlN80JLKNDzPZBQu-211">
          <mxGeometry relative="1" as="geometry" />
        </mxCell>
        <mxCell id="2xLEtlN80JLKNDzPZBQu-206" value="接口设计" style="rounded=1;whiteSpace=wrap;html=1;strokeWidth=2;" vertex="1" parent="2xLEtlN80JLKNDzPZBQu-119">
          <mxGeometry x="90" y="40" width="120" height="60" as="geometry" />
        </mxCell>
        <mxCell id="2xLEtlN80JLKNDzPZBQu-215" style="edgeStyle=orthogonalEdgeStyle;rounded=0;orthogonalLoop=1;jettySize=auto;html=1;exitX=0.5;exitY=1;exitDx=0;exitDy=0;entryX=0.5;entryY=0;entryDx=0;entryDy=0;strokeWidth=2;" edge="1" parent="2xLEtlN80JLKNDzPZBQu-119" source="2xLEtlN80JLKNDzPZBQu-211" target="2xLEtlN80JLKNDzPZBQu-214">
          <mxGeometry relative="1" as="geometry" />
        </mxCell>
        <mxCell id="2xLEtlN80JLKNDzPZBQu-216" value="是" style="edgeLabel;html=1;align=center;verticalAlign=middle;resizable=0;points=[];" vertex="1" connectable="0" parent="2xLEtlN80JLKNDzPZBQu-215">
          <mxGeometry x="-0.4505" relative="1" as="geometry">
            <mxPoint x="-2" y="3" as="offset" />
          </mxGeometry>
        </mxCell>
        <mxCell id="2xLEtlN80JLKNDzPZBQu-225" style="edgeStyle=orthogonalEdgeStyle;rounded=0;orthogonalLoop=1;jettySize=auto;html=1;exitX=0;exitY=0.5;exitDx=0;exitDy=0;entryX=0;entryY=0.5;entryDx=0;entryDy=0;strokeWidth=2;" edge="1" parent="2xLEtlN80JLKNDzPZBQu-119" source="2xLEtlN80JLKNDzPZBQu-211" target="2xLEtlN80JLKNDzPZBQu-206">
          <mxGeometry relative="1" as="geometry">
            <mxPoint x="150" y="20" as="targetPoint" />
            <Array as="points">
              <mxPoint x="30" y="190" />
              <mxPoint x="30" y="70" />
            </Array>
          </mxGeometry>
        </mxCell>
        <mxCell id="2xLEtlN80JLKNDzPZBQu-226" value="否" style="edgeLabel;html=1;align=center;verticalAlign=middle;resizable=0;points=[];" vertex="1" connectable="0" parent="2xLEtlN80JLKNDzPZBQu-225">
          <mxGeometry x="-0.1465" y="-3" relative="1" as="geometry">
            <mxPoint as="offset" />
          </mxGeometry>
        </mxCell>
        <mxCell id="2xLEtlN80JLKNDzPZBQu-211" value="评审通过" style="rhombus;whiteSpace=wrap;html=1;rounded=0;strokeWidth=2;" vertex="1" parent="2xLEtlN80JLKNDzPZBQu-119">
          <mxGeometry x="110" y="150.00000000000023" width="80" height="80" as="geometry" />
        </mxCell>
        <mxCell id="2xLEtlN80JLKNDzPZBQu-222" style="edgeStyle=orthogonalEdgeStyle;rounded=0;orthogonalLoop=1;jettySize=auto;html=1;entryX=0.5;entryY=0;entryDx=0;entryDy=0;strokeWidth=2;" edge="1" parent="2xLEtlN80JLKNDzPZBQu-119" target="2xLEtlN80JLKNDzPZBQu-220">
          <mxGeometry relative="1" as="geometry">
            <mxPoint x="150" y="340" as="sourcePoint" />
          </mxGeometry>
        </mxCell>
        <mxCell id="2xLEtlN80JLKNDzPZBQu-214" value="YAPI接口文档" style="shape=document;whiteSpace=wrap;html=1;boundedLbl=1;strokeWidth=2;movable=1;resizable=1;rotatable=1;deletable=1;editable=1;locked=0;connectable=1;points=[[0,0.25,0,0,0],[0,0.5,0,0,0],[0,0.75,0,0,0],[0.25,0,0,0,0],[0.48,0.87,0,0,0],[0.5,0,0,0,0],[0.75,0,0,0,0],[1,0.25,0,0,0],[1,0.5,0,0,0],[1,0.75,0,0,0]];" vertex="1" parent="2xLEtlN80JLKNDzPZBQu-119">
          <mxGeometry x="90" y="279.9999999999998" width="120" height="80" as="geometry" />
        </mxCell>
        <mxCell id="2xLEtlN80JLKNDzPZBQu-224" style="edgeStyle=orthogonalEdgeStyle;rounded=0;orthogonalLoop=1;jettySize=auto;html=1;exitX=0.5;exitY=1;exitDx=0;exitDy=0;entryX=0.5;entryY=0;entryDx=0;entryDy=0;strokeWidth=2;" edge="1" parent="2xLEtlN80JLKNDzPZBQu-119" source="2xLEtlN80JLKNDzPZBQu-220" target="2xLEtlN80JLKNDzPZBQu-219">
          <mxGeometry relative="1" as="geometry" />
        </mxCell>
        <mxCell id="2xLEtlN80JLKNDzPZBQu-220" value="接口开发" style="rounded=1;whiteSpace=wrap;html=1;strokeWidth=2;" vertex="1" parent="2xLEtlN80JLKNDzPZBQu-119">
          <mxGeometry x="90" y="399.9999999999998" width="120" height="60" as="geometry" />
        </mxCell>
        <mxCell id="2xLEtlN80JLKNDzPZBQu-219" value="接口联调" style="rounded=1;whiteSpace=wrap;html=1;strokeWidth=2;" vertex="1" parent="2xLEtlN80JLKNDzPZBQu-119">
          <mxGeometry x="-40" y="519.9999999999998" width="120" height="60" as="geometry" />
        </mxCell>
        <mxCell id="2xLEtlN80JLKNDzPZBQu-120" value="" style="swimlane;startSize=0;" vertex="1" parent="2xLEtlN80JLKNDzPZBQu-102">
          <mxGeometry x="600" width="290" height="810" as="geometry" />
        </mxCell>
        <mxCell id="2xLEtlN80JLKNDzPZBQu-223" style="edgeStyle=orthogonalEdgeStyle;rounded=0;orthogonalLoop=1;jettySize=auto;html=1;exitX=0.5;exitY=1;exitDx=0;exitDy=0;entryX=0;entryY=0.5;entryDx=0;entryDy=0;strokeWidth=2;" edge="1" parent="2xLEtlN80JLKNDzPZBQu-102" source="2xLEtlN80JLKNDzPZBQu-198" target="2xLEtlN80JLKNDzPZBQu-219">
          <mxGeometry relative="1" as="geometry" />
        </mxCell>
        <mxCell id="2xLEtlN80JLKNDzPZBQu-103" value="测试阶段" style="swimlane;startSize=20;horizontal=0;html=1;" vertex="1" parent="2xLEtlN80JLKNDzPZBQu-100">
          <mxGeometry y="1420" width="890" height="180" as="geometry" />
        </mxCell>
        <mxCell id="2xLEtlN80JLKNDzPZBQu-114" value="" style="swimlane;startSize=0;" vertex="1" parent="2xLEtlN80JLKNDzPZBQu-103">
          <mxGeometry x="20" width="290" height="350" as="geometry" />
        </mxCell>
        <mxCell id="2xLEtlN80JLKNDzPZBQu-121" value="" style="swimlane;startSize=0;" vertex="1" parent="2xLEtlN80JLKNDzPZBQu-103">
          <mxGeometry x="310" width="290" height="350" as="geometry" />
        </mxCell>
        <mxCell id="2xLEtlN80JLKNDzPZBQu-122" value="" style="swimlane;startSize=0;" vertex="1" parent="2xLEtlN80JLKNDzPZBQu-103">
          <mxGeometry x="600" width="290" height="350" as="geometry" />
        </mxCell>
        <mxCell id="2xLEtlN80JLKNDzPZBQu-196" style="edgeStyle=orthogonalEdgeStyle;rounded=0;orthogonalLoop=1;jettySize=auto;html=1;exitX=0;exitY=0.5;exitDx=0;exitDy=0;exitPerimeter=0;entryX=0.5;entryY=0;entryDx=0;entryDy=0;strokeWidth=2;" edge="1" parent="2xLEtlN80JLKNDzPZBQu-100" source="2xLEtlN80JLKNDzPZBQu-141" target="2xLEtlN80JLKNDzPZBQu-195">
          <mxGeometry relative="1" as="geometry" />
        </mxCell>
        <mxCell id="2xLEtlN80JLKNDzPZBQu-207" style="edgeStyle=orthogonalEdgeStyle;rounded=0;orthogonalLoop=1;jettySize=auto;html=1;exitX=0.5;exitY=0.88;exitDx=0;exitDy=0;exitPerimeter=0;entryX=0.5;entryY=0;entryDx=0;entryDy=0;strokeWidth=2;" edge="1" parent="2xLEtlN80JLKNDzPZBQu-100" source="2xLEtlN80JLKNDzPZBQu-141" target="2xLEtlN80JLKNDzPZBQu-206">
          <mxGeometry relative="1" as="geometry" />
        </mxCell>
      </root>
    </mxGraphModel>
  </diagram>
</mxfile>
